<svg viewBox="0 0 30 30" xml:space="preserve" xmlns="http://www.w3.org/2000/svg"><path d="M30 13h-4V9h-2v4h-4v2h4v4h2v-4h4zM15 17s-2-1.15-2-2c0 0-.499-1.828 1-3 1.537-1.2 3-3.035 3-5 0-2.336-1.046-5-3-6h3l2.387-1H10C5.835 0 2 3.345 2 7c0 3.735 2.849 6.56 7.086 6.56.295 0 .581-.006.861-.025-.274.526-.472 1.119-.472 1.735 0 1.037.818 2.042 1.524 2.73h-2c-5.159 0-9 2.593-9 6 0 3.355 4.872 6 10.031 6 5.882 0 9.97-3 9.97-7 0-2.689-2.545-4.264-5-6zm-4-4c-2.395 0-5.587-2.857-6-6C4.587 3.856 6.607.929 9 1c2.394.071 4.603 2.908 5.017 6.052C14.429 10.195 13 13 11 13zm-1 15c-3.566 0-7-1.289-7-4 0-2.658 3.434-5.038 7-5 .832.009 2 0 2 0 1 0 2.88.881 4 2 1 1 1 2.674 1 3 0 3-1.986 4-7 4z" fill="#263a41" class="fill-000000"></path></svg>