<svg xmlns="http://www.w3.org/2000/svg" viewBox="0 0 589.22 570"><defs><style>.cls-1{fill:#fefefe;}</style></defs><title>Ativo 1</title><g id="Camada_2" data-name="Camada 2"><g id="Camada_1-2" data-name="Camada 1"><g id="Camada_1-3" data-name="Camada_1"><path class="cls-1" d="M552.39,110.46V113l-.47-2.13L514.54,119C509.41,52.62,454.37,0,386.68,0S263.73,52.85,258.74,119.39L221,111.18v-.7L0,110.46V515.54H197L388.3,570l200.92-59.11V110.44ZM386.68,36.8a92.18,92.18,0,0,1,92.07,92.07c0,66.5-63.3,155-92.07,191.75-28.75-36.75-92.07-125.23-92.07-191.75A92.18,92.18,0,0,1,386.68,36.8ZM221,148.83l39.8,8.66C275.93,241,349.37,333.8,368.25,356.56V526L221,484.08V148.82ZM36.83,147.28H184.14V479.34l-147.3-.63V147.27ZM405.1,526.7V356.53C424,333.74,497.64,240.72,512.66,157.08l39.73-8.61V483.36Zm31.59-394.78a50,50,0,1,0-50,50.05A50,50,0,0,0,436.69,131.92Zm-63.2,0a13.18,13.18,0,1,1,13.18,13.22A13.19,13.19,0,0,1,373.49,131.92Z"/></g></g></g></svg>