<svg xmlns="http://www.w3.org/2000/svg" viewBox="0 0 564.7 640"><defs><style>.cls-1{fill:#fefefe;}</style></defs><title>Ativo 1</title><g id="Camada_2" data-name="Camada 2"><g id="Camada_1-2" data-name="Camada 1"><g id="Camada_1-3" data-name="Camada_1"><path class="cls-1" d="M310.58,545.88a28.23,28.23,0,1,1-28.23-28.23A28.19,28.19,0,0,1,310.58,545.88ZM564.7,56.47V583.53c0,31.13-23.53,56.47-52.4,56.47H52.4C23.53,640,0,614.66,0,583.53V56.47C0,25.34,23.53,0,52.4,0H512.33c28.84,0,52.36,25.34,52.36,56.47Zm-37.65,0c0-10.2-6.74-18.82-14.75-18.82H52.4c-8,0-14.75,8.62-14.75,18.82V583.53c0,10.2,6.74,18.82,14.75,18.82H512.33c8,0,14.72-8.62,14.72-18.82ZM75.3,75.3H489.4V489.41H75.3ZM113,451.76H451.76V112.93L113,113V451.77Z"/></g></g></g></svg>